<svg width="44" height="64" viewBox="0 0 44 64" fill="none" xmlns="http://www.w3.org/2000/svg">
<g clip-path="url(#clip0_91_40)">
<mask id="mask0_91_40" style="mask-type:luminance" maskUnits="userSpaceOnUse" x="0" y="0" width="44" height="64">
<path d="M43.3592 0H0.692505V64H43.3592V0Z" fill="white"/>
</mask>
<g mask="url(#mask0_91_40)">
<path d="M22.0259 32.0001C22.0259 29.1712 23.1497 26.4581 25.1501 24.4577C27.1505 22.4573 29.8636 21.3335 32.6925 21.3335C35.5215 21.3335 38.2346 22.4573 40.235 24.4577C42.2354 26.4581 43.3592 29.1712 43.3592 32.0001C43.3592 34.8291 42.2354 37.5422 40.235 39.5426C38.2346 41.543 35.5215 42.6668 32.6925 42.6668C29.8636 42.6668 27.1505 41.543 25.1501 39.5426C23.1497 37.5422 22.0259 34.8291 22.0259 32.0001Z" fill="#1ABCFE"/>
<path d="M0.692505 53.3332C0.692505 50.5042 1.81631 47.7911 3.8167 45.7907C5.81709 43.7903 8.5302 42.6665 11.3592 42.6665H22.0258V53.3332C22.0258 56.1622 20.902 58.8753 18.9016 60.8757C16.9013 62.8761 14.1881 63.9999 11.3592 63.9999C8.5302 63.9999 5.81709 62.8761 3.8167 60.8757C1.81631 58.8753 0.692505 56.1622 0.692505 53.3332Z" fill="#0ACF83"/>
<path d="M22.0259 0V21.3333H32.6925C35.5215 21.3333 38.2346 20.2095 40.235 18.2091C42.2354 16.2087 43.3592 13.4956 43.3592 10.6667C43.3592 7.83769 42.2354 5.12458 40.235 3.12419C38.2346 1.12381 35.5215 0 32.6925 0H22.0259Z" fill="#FF7262"/>
<path d="M0.692505 10.6667C0.692505 13.4956 1.81631 16.2087 3.8167 18.2091C5.81709 20.2095 8.5302 21.3333 11.3592 21.3333H22.0258V0H11.3592C8.5302 0 5.81709 1.12381 3.8167 3.12419C1.81631 5.12458 0.692505 7.83769 0.692505 10.6667Z" fill="#F24E1E"/>
<path d="M0.692505 32.0001C0.692505 34.8291 1.81631 37.5422 3.8167 39.5426C5.81709 41.543 8.5302 42.6668 11.3592 42.6668H22.0258V21.3335H11.3592C8.5302 21.3335 5.81709 22.4573 3.8167 24.4577C1.81631 26.4581 0.692505 29.1712 0.692505 32.0001Z" fill="#A259FF"/>
</g>
</g>
<defs>
<clipPath id="clip0_91_40">
<rect width="44" height="64" fill="white"/>
</clipPath>
</defs>
</svg>
