<svg width="64" height="64" viewBox="0 0 64 64" fill="none" xmlns="http://www.w3.org/2000/svg">
<g clip-path="url(#clip0_91_64)">
<path d="M0 64V0H64V64H0Z" fill="white"/>
<path d="M31.4821 32.1458C30.005 29.7645 28.9335 27.7902 27.4491 24.0724C24.939 17.7928 42.7152 12.1185 35.5077 1.21533C38.6319 8.74705 24.2937 13.4031 22.9617 19.6754C21.7437 25.4444 31.4747 32.1458 31.4821 32.1458Z" fill="#F44336"/>
<path d="M31.8195 20.8565C31.5354 24.5802 35.1184 26.5648 35.222 29.2851C35.3049 31.4992 33.0805 33.3447 33.0805 33.3447C33.0805 33.3447 37.1179 32.5514 38.3774 29.1741C39.776 25.4238 35.6631 22.856 36.0863 19.853C36.4815 16.9848 45.0122 11.6494 45.0122 11.6494C45.0122 11.6494 32.4604 12.4812 31.8195 20.8565Z" fill="#F44336"/>
<path d="M43.9645 32.3782C46.5604 31.7951 48.7493 33.4482 48.7493 35.353C48.7493 39.6465 42.7982 43.7046 42.7982 43.7046C42.7982 43.7046 52.0112 42.6065 52.0112 35.5572C52.0112 30.8952 47.4869 29.7305 43.9645 32.3782ZM39.5911 35.8414C39.5911 35.8414 42.4637 33.7946 43.2289 33.0264C36.1797 34.5227 20.0847 34.724 20.0847 33.4246C20.0847 32.2272 25.275 31.0003 25.275 31.0003C25.275 31.0003 13.771 30.8346 13.771 34.2282C13.771 37.7654 28.83 38.0185 39.5911 35.8414Z" fill="#1565C0"/>
<path d="M37.8238 39.0619C31.1505 41.2804 18.8591 40.5715 22.4999 37.5923C20.7269 37.5923 18.0984 39.0175 18.0984 40.388C18.0984 43.1364 31.3917 45.2587 41.2308 41.2346L37.8238 39.0619Z" fill="#1565C0"/>
<path d="M24.1353 43.7505C21.714 43.7505 20.1467 45.3104 20.1467 46.4471C20.1467 49.9857 34.5915 50.3424 40.3147 46.7504L36.6768 44.3351C32.4011 46.2147 21.6608 46.4737 24.1353 43.7505Z" fill="#1565C0"/>
<path d="M50.1759 49.512C50.1759 48.1268 48.6145 47.4741 48.0551 47.1618C51.3525 55.1138 15.0259 54.4967 15.0259 49.8021C15.0259 48.735 17.7003 47.6902 20.1719 48.1845L18.0703 46.9428C13.1448 46.1702 9.80005 48.3354 9.80005 50.0818C9.80005 58.2263 50.1759 57.8341 50.1759 49.512Z" fill="#1565C0"/>
<path d="M54.2 52.4307C48.0639 58.4913 32.5047 60.6994 16.8582 56.955C32.5047 63.6195 54.126 59.8662 54.2 52.4307Z" fill="#1565C0"/>
</g>
<defs>
<clipPath id="clip0_91_64">
<rect width="64" height="64" fill="white"/>
</clipPath>
</defs>
</svg>
