<svg width="64" height="64" viewBox="0 0 64 64" fill="none" xmlns="http://www.w3.org/2000/svg">
<g clip-path="url(#clip0_91_78)">
<path d="M0 64V0H64V64H0Z" fill="#FFD600"/>
<path d="M41.8454 47.9059C43.0756 49.9041 44.4125 51.8188 47.2445 51.8188C49.6231 51.8188 50.8712 50.6366 50.8712 49.001C50.8712 47.0437 49.5805 46.3486 46.9636 45.209L45.5289 44.5974C41.3885 42.841 38.6347 40.6401 38.6347 35.9912C38.6347 31.7068 41.9147 28.4463 47.04 28.4463C50.6898 28.4463 53.312 29.7103 55.2036 33.0206L50.7343 35.8774C49.7511 34.121 48.688 33.4294 47.04 33.4294C45.3583 33.4294 44.2934 34.4908 44.2934 35.8774C44.2934 37.5912 45.36 38.2846 47.8223 39.3459L49.2569 39.9574C54.1369 42.0357 56.8889 44.1583 56.8889 48.9299C56.8889 54.0712 52.8285 56.889 47.3778 56.889C42.0463 56.889 39.0187 54.2134 37.3334 50.9014L41.8454 47.9059ZM21.248 48.0517C22.1476 49.6623 23.5147 50.9014 25.4809 50.9014C27.3618 50.9014 28.4445 50.1583 28.4445 47.2694V28.4446H34.3698V48.1797C34.3698 54.1654 30.8978 56.889 25.8276 56.889C21.2463 56.889 17.9396 53.785 16.592 50.9014L21.248 48.0517Z" fill="#000001"/>
</g>
<defs>
<clipPath id="clip0_91_78">
<rect width="64" height="64" fill="white"/>
</clipPath>
</defs>
</svg>
