<svg width="64" height="64" viewBox="0 0 64 64" fill="none" xmlns="http://www.w3.org/2000/svg">
<g clip-path="url(#clip0_91_136)">
<path d="M62.4255 27.521L51.0994 7.90438C49.5 5.13814 46.5216 3.41638 43.3229 3.41638H20.6707C17.472 3.41638 14.4936 5.13814 12.8943 7.90438L1.56817 27.521C-0.0311877 30.2873 -0.0311877 33.7308 1.56817 36.497L12.8943 56.1137C14.4936 58.8881 17.472 60.6017 20.6707 60.6017H43.3229C46.5216 60.6017 49.5 58.8881 51.0994 56.1137L62.4255 36.497C64.0248 33.7308 64.0248 30.2873 62.4255 27.521ZM44.1389 43.229C41.2176 46.4685 37.2111 48.378 32.8536 48.6065C32.5599 48.6228 32.2743 48.6309 31.9805 48.6309C27.9413 48.6309 24.0979 47.1621 21.0706 44.4367C14.3794 38.4146 13.8327 28.0677 19.8629 21.3684C20.328 20.8543 20.8258 20.3647 21.3562 19.9159C22.3762 19.0346 23.9184 19.1489 24.8079 20.177C25.6891 21.197 25.5667 22.7474 24.5386 23.6287C24.1795 23.9388 23.8287 24.2815 23.5023 24.6487C19.2835 29.3325 19.6589 36.5786 24.3509 40.7973C26.6194 42.8455 29.5407 43.8818 32.6007 43.7186C35.6525 43.5554 38.4595 42.2172 40.4995 39.9487C44.7183 35.2649 44.3347 28.0188 39.6509 23.8001C38.6472 22.8943 38.5656 21.3439 39.4714 20.3402C40.3771 19.3365 41.9194 19.2549 42.9312 20.1607C49.6224 26.1828 50.161 36.5297 44.1389 43.229ZM29.5488 31.1685V17.3292C29.5488 15.9746 30.6504 14.8812 31.9968 14.8812C33.3514 14.8812 34.4448 15.9746 34.4448 17.3292V31.1685C34.4448 32.5149 33.3514 33.6165 31.9968 33.6165C31.3277 33.6165 30.7075 33.3391 30.2669 32.8985C29.8263 32.4578 29.5488 31.8377 29.5488 31.1685ZM41.8867 104.396L36.8275 95.8284C36.3706 95.0532 35.7259 94.4167 34.9752 93.9761L34.8447 93.7476H34.5672C33.8573 93.4049 33.0658 93.2172 32.2579 93.2172H21.9519C21.1359 93.2172 20.3525 93.4049 19.6426 93.7476H19.2835L19.104 94.0495C18.4104 94.4901 17.8147 95.094 17.3823 95.8284L12.3231 104.396C11.8579 105.188 11.6131 106.061 11.5887 106.942L11.5071 107.089L11.5887 107.236C11.6131 108.117 11.8579 108.99 12.3231 109.782L17.3823 118.35C17.8147 119.084 18.4104 119.688 19.1122 120.129L19.2835 120.423H19.6263C20.3443 120.773 21.1277 120.961 21.9519 120.961H32.2579C33.0739 120.961 33.8655 120.773 34.5835 120.423H34.8447L34.9671 120.21C35.7259 119.762 36.3706 119.133 36.8275 118.35L41.8867 109.782C42.3763 108.95 42.6211 108.019 42.6211 107.089C42.6211 106.159 42.3763 105.229 41.8867 104.396ZM23.5757 111.226C25.7463 113.185 29.1082 113.005 31.0584 110.835C33.0168 108.664 32.8373 105.302 30.6667 103.352C30.1608 102.895 30.12 102.12 30.577 101.622C31.0258 101.116 31.801 101.075 32.3069 101.532C35.4811 104.388 35.7341 109.301 32.8781 112.475C31.3522 114.172 29.2387 115.037 27.1171 115.037C25.2648 115.037 23.4125 114.376 21.9355 113.046C18.7613 110.19 18.5002 105.278 21.3643 102.103C21.5847 101.859 21.8213 101.622 22.0661 101.41C22.5802 100.969 23.3554 101.034 23.796 101.54C24.2367 102.054 24.1795 102.83 23.6655 103.27C23.4941 103.417 23.3309 103.572 23.1759 103.744C21.2256 105.914 21.4051 109.276 23.5757 111.226ZM25.8931 105.865V100.153C25.8931 99.4759 26.448 98.9292 27.1171 98.9292C27.7944 98.9292 28.3411 99.4759 28.3411 100.153V105.865C28.3411 106.542 27.7944 107.089 27.1171 107.089C26.448 107.089 25.8931 106.542 25.8931 105.865ZM37.8312 160.505C37.7741 159.876 37.5864 159.264 37.26 158.701L33.7267 152.581C33.4003 152.01 32.9597 151.537 32.4375 151.17L32.1927 150.745H31.7031C31.1237 150.476 30.4954 150.337 29.8426 150.337H22.776C22.1232 150.337 21.4949 150.476 20.9155 150.745H20.4259L20.1811 151.17C19.6589 151.537 19.2183 152.01 18.8919 152.581L15.3586 158.701C15.0322 159.264 14.8445 159.876 14.7874 160.505L14.5426 160.929L14.7792 161.345C14.8363 161.982 15.024 162.618 15.3586 163.189L18.8919 169.309C19.2264 169.889 19.6834 170.378 20.2138 170.745L20.4259 171.113H20.8421C21.4378 171.398 22.0987 171.553 22.776 171.553H29.8426C30.5199 171.553 31.1808 171.398 31.7765 171.113H32.1927L32.4048 170.745C32.9352 170.378 33.3922 169.889 33.7267 169.309L37.26 163.189C37.5946 162.618 37.7823 161.982 37.8394 161.345L38.076 160.929L37.8312 160.505ZM23.8858 163.809C25.3709 165.139 27.6639 165.025 28.9939 163.54C30.3322 162.055 30.2098 159.77 28.7247 158.432C28.3493 158.089 28.3248 157.51 28.6594 157.134C29.0021 156.759 29.5815 156.726 29.9568 157.069C32.1927 159.077 32.3722 162.536 30.3648 164.772C29.3856 165.849 28.0474 166.494 26.5949 166.567C26.497 166.576 26.3991 166.576 26.3011 166.576C24.9547 166.576 23.6655 166.086 22.6618 165.172C21.5765 164.201 20.94 162.863 20.8584 161.41C20.785 159.95 21.2827 158.554 22.2538 157.469C22.4088 157.298 22.572 157.134 22.7515 156.988C23.1351 156.653 23.7144 156.702 24.049 157.086C24.3754 157.469 24.3346 158.048 23.9511 158.375C23.8287 158.481 23.7226 158.587 23.6165 158.701C22.9719 159.419 22.6455 160.341 22.6944 161.312C22.7434 162.275 23.1677 163.165 23.8858 163.809ZM25.3872 160.823V156.147C25.3872 155.641 25.8034 155.233 26.3093 155.233C26.8152 155.233 27.2232 155.641 27.2232 156.147V160.823C27.2232 161.329 26.8152 161.745 26.3093 161.745C25.8034 161.745 25.3872 161.329 25.3872 160.823ZM31.7194 196.547C31.6786 196.147 31.548 195.756 31.3359 195.397L29.6631 192.549C29.4509 192.198 29.1735 191.896 28.8389 191.668L28.692 191.423H28.4146C28.0392 191.235 27.6231 191.137 27.1987 191.137H23.7552C23.3309 191.137 22.9147 191.235 22.5394 191.423H22.3272L22.2211 191.602C21.8458 191.831 21.5275 192.157 21.2991 192.549L19.6181 195.397C19.3815 195.797 19.2509 196.229 19.2264 196.678L19.1367 196.833L19.2264 196.988C19.2427 197.445 19.3733 197.894 19.6181 198.302L21.2991 201.15C21.5357 201.549 21.8621 201.884 22.2538 202.121L22.3272 202.243H22.4741C22.8658 202.455 23.3064 202.561 23.7552 202.561H27.1987C27.6557 202.561 28.0963 202.447 28.488 202.243H28.692L28.8063 202.055C29.149 201.827 29.4427 201.517 29.6631 201.15L31.3359 198.302C31.5562 197.934 31.6867 197.526 31.7194 197.11L31.8826 196.833L31.7194 196.547ZM24.1551 198.391C24.5467 198.75 25.0363 198.93 25.5749 198.897C26.0971 198.873 26.5867 198.636 26.9376 198.245C27.2885 197.861 27.468 197.355 27.4435 196.825C27.4109 196.302 27.1824 195.821 26.7907 195.462C26.5867 195.282 26.5704 194.972 26.7581 194.777C26.9376 194.573 27.2477 194.556 27.4435 194.736C28.0311 195.266 28.3738 195.984 28.4146 196.776C28.4635 197.559 28.1943 198.318 27.6639 198.906C27.1416 199.493 26.4154 199.836 25.6239 199.877H25.4688C24.7426 199.877 24.0408 199.615 23.5023 199.126C22.9147 198.595 22.5639 197.869 22.5231 197.086C22.4823 196.294 22.7515 195.544 23.2819 194.956C23.3635 194.866 23.4533 194.777 23.5431 194.695C23.7471 194.515 24.0571 194.54 24.2367 194.744C24.4162 194.948 24.3917 195.258 24.1877 195.429C24.1224 195.486 24.0653 195.544 24.0082 195.609C23.6573 196.001 23.4778 196.506 23.5023 197.029C23.5349 197.559 23.7634 198.041 24.1551 198.391ZM24.9792 196.849V194.442C24.9792 194.173 25.1995 193.952 25.4688 193.952C25.7463 193.952 25.9584 194.173 25.9584 194.442V196.849C25.9584 197.118 25.7463 197.339 25.4688 197.339C25.1995 197.339 24.9792 197.118 24.9792 196.849Z" fill="white"/>
<path d="M61.7155 27.9291L50.3895 8.31242C48.937 5.79098 46.236 4.23242 43.3229 4.23242H20.6707C17.7576 4.23242 15.0567 5.79098 13.6042 8.31242L2.2781 27.9291C0.817457 30.4587 0.817457 33.5676 2.2781 36.0891L13.6042 55.7057C15.0567 58.2353 17.7576 59.7857 20.6707 59.7857H43.3229C46.236 59.7857 48.937 58.2353 50.3895 55.7057L61.7155 36.0891C63.1762 33.5676 63.1762 30.4587 61.7155 27.9291ZM44.1389 43.2291C41.2176 46.4686 37.2111 48.378 32.8536 48.6065C32.5599 48.6228 32.2743 48.631 31.9805 48.631C27.9413 48.631 24.0979 47.1622 21.0706 44.4367C14.3794 38.4147 13.8327 28.0678 19.8629 21.3684C20.328 20.8543 20.8258 20.3647 21.3562 19.9159C22.3762 19.0347 23.9184 19.1489 24.8079 20.1771C25.6891 21.1971 25.5667 22.7475 24.5386 23.6287C24.1795 23.9388 23.8287 24.2815 23.5023 24.6487C19.2835 29.3326 19.6589 36.5787 24.3509 40.7974C26.6194 42.8455 29.5407 43.8819 32.6007 43.7187C35.6525 43.5555 38.4595 42.2172 40.4995 39.9487C44.7183 35.2649 44.3347 28.0188 39.6509 23.8001C38.6472 22.8943 38.5656 21.3439 39.4714 20.3403C40.3771 19.3366 41.9194 19.255 42.9312 20.1607C49.6224 26.1828 50.161 36.5297 44.1389 43.2291ZM34.4448 17.3292V31.1686C34.4448 32.515 33.3514 33.6166 31.9968 33.6166C31.3277 33.6166 30.7075 33.3391 30.2669 32.8985C29.8263 32.4579 29.5488 31.8377 29.5488 31.1686V17.3292C29.5488 15.9747 30.6504 14.8812 31.9968 14.8812C33.3514 14.8812 34.4448 15.9747 34.4448 17.3292Z" fill="#69AD3C"/>
<path d="M62.4255 27.521L51.0994 7.90438C49.5 5.13814 46.5216 3.41638 43.3229 3.41638H20.6707C17.472 3.41638 14.4936 5.13814 12.8943 7.90438L1.56817 27.521C-0.0311877 30.2873 -0.0311877 33.7308 1.56817 36.497L12.8943 56.1137C14.4936 58.8881 17.472 60.6017 20.6707 60.6017H43.3229C46.5216 60.6017 49.5 58.8881 51.0994 56.1137L62.4255 36.497C64.0248 33.7308 64.0248 30.2873 62.4255 27.521ZM43.3229 58.9697H20.6707C18.0514 58.9697 15.6197 57.5661 14.3059 55.2977L2.97985 35.681C1.67425 33.4207 1.67425 30.6055 2.97985 28.337L14.3059 8.72038C15.6197 6.4519 18.0514 5.04838 20.6707 5.04838H43.3229C45.9423 5.04838 48.3739 6.4519 49.6877 8.72038L61.0138 28.337C62.3194 30.6055 62.3194 33.4207 61.0138 35.681L49.6877 55.2977C48.3739 57.5661 45.9423 58.9697 43.3229 58.9697Z" fill="#69AD3C"/>
</g>
<defs>
<clipPath id="clip0_91_136">
<rect width="64" height="64" fill="white"/>
</clipPath>
</defs>
</svg>
