<svg width="64" height="64" viewBox="0 0 64 64" fill="none" xmlns="http://www.w3.org/2000/svg">
<path d="M63.8755 0H0.124512V63.8584H63.8755V0Z" fill="#005F0F"/>
<path d="M54.4589 8.70715C46.6076 18.328 37.0191 26.3861 26.7936 33.3715C23.4695 35.751 19.7998 37.8689 17.2441 41.1274C16.268 42.8422 16.0325 45.2572 17.7013 46.6487C20.4806 49.2678 24.8096 49.8375 28.2913 48.3713C33.1658 46.5147 36.5324 42.2884 39.3624 38.099C45.6774 29.0012 49.507 18.5367 54.4589 8.70715Z" fill="white"/>
<path d="M49.9559 12.0338C40.1806 19.7792 32.3616 23.965 22.3645 27.5657C19.3473 28.8568 16.1137 30.4952 14.712 33.6632C13.2688 36.6604 13.7418 40.84 15.3974 43.6152C15.2735 42.4469 15.8976 40.5594 16.8262 39.6733C19.9074 36.242 23.9206 33.9939 27.4506 31.3884L27.4591 31.3813L27.4675 31.3756C35.6371 25.7649 43.2963 19.3536 49.9559 12.0338Z" fill="#AEA99F"/>
</svg>
