<svg width="80" height="80" viewBox="0 0 80 80" fill="none" xmlns="http://www.w3.org/2000/svg">
<path d="M35.615 29.056L35.6105 29.0589C34.544 29.7414 33.6855 30.6411 33.0837 31.7157C32.4975 32.7626 32.0356 33.9795 31.8256 35.3651C31.6226 36.7052 31.5 38.0506 31.5 39.48V40.56C31.5 41.9094 31.6226 43.2948 31.8256 44.6349C32.0351 46.017 32.4957 47.2742 33.0837 48.3243C33.6852 49.3983 34.5431 50.2977 35.6088 50.9801C36.635 51.6486 37.9373 51.9385 39.4261 51.9798L39.445 51.9803L39.4638 51.9794C40.3131 51.939 41.1754 51.857 42.0091 51.5505C42.867 51.2498 43.6008 50.8183 44.2475 50.2578C44.8937 49.6978 45.4159 49.0463 45.8072 48.2636C46.1293 47.6194 46.3335 46.9448 46.42 46.22H52.5938C52.4867 47.5823 52.0889 48.8641 51.4728 50.0964C50.7852 51.4715 49.8281 52.6609 48.6316 53.703C47.4405 54.7404 46.0544 55.5501 44.4682 56.1304C42.8839 56.7101 41.1821 57.02 39.36 57.02C36.8214 57.02 34.614 56.5514 32.7683 55.7055C30.9161 54.8565 29.3754 53.6621 28.1425 52.1979C26.9097 50.734 25.9819 48.9972 25.4004 46.9814C24.8132 44.9459 24.5 42.8326 24.5 40.56V39.48C24.5 37.2133 24.8515 35.1001 25.4404 33.0586C26.0217 31.0434 26.9499 29.3043 28.1865 27.7972C29.4144 26.3007 30.9532 25.1435 32.8161 24.2509C34.6526 23.3709 36.8547 22.94 39.4 22.94C41.3944 22.94 43.1715 23.2137 44.782 23.8272C46.4073 24.4464 47.7905 25.2937 48.9388 26.3655C50.0829 27.4334 50.9655 28.7346 51.6217 30.2398C52.2107 31.5912 52.5529 33.076 52.6706 34.7H46.5062C46.433 33.9315 46.2615 33.1582 45.936 32.4348C45.56 31.5993 45.0924 30.829 44.4855 30.1788C43.8713 29.5207 43.0925 29.0053 42.2452 28.624L42.2452 28.6239L42.234 28.6192C41.4068 28.2709 40.5057 28.1024 39.5417 28.0605L39.5241 28.0597L39.5065 28.0602C37.9749 28.1016 36.6771 28.3922 35.615 29.056ZM0.5 40C0.5 18.1961 18.1961 0.5 40 0.5C61.8039 0.5 79.5 18.1961 79.5 40C79.5 61.8039 61.8039 79.5 40 79.5C18.1961 79.5 0.5 61.8039 0.5 40ZM7.5 40C7.5 57.9161 22.0839 72.5 40 72.5C57.9161 72.5 72.5 57.9161 72.5 40C72.5 22.0839 57.9161 7.5 40 7.5C22.0839 7.5 7.5 22.0839 7.5 40Z" fill="#1F2D33" stroke="#1F2D33"/>
</svg>
