<svg width="300" height="150" viewBox="0 0 300 150" fill="none" xmlns="http://www.w3.org/2000/svg">
<path d="M90.548 96.436C90.548 93.988 91.1 91.792 92.204 89.848C93.308 87.88 94.808 86.344 96.704 85.24C98.624 84.136 100.748 83.584 103.076 83.584C105.812 83.584 108.2 84.244 110.24 85.564C112.28 86.884 113.768 88.756 114.704 91.18H110.78C110.084 89.668 109.076 88.504 107.756 87.688C106.46 86.872 104.9 86.464 103.076 86.464C101.324 86.464 99.752 86.872 98.36 87.688C96.968 88.504 95.876 89.668 95.084 91.18C94.292 92.668 93.896 94.42 93.896 96.436C93.896 98.428 94.292 100.18 95.084 101.692C95.876 103.18 96.968 104.332 98.36 105.148C99.752 105.964 101.324 106.372 103.076 106.372C104.9 106.372 106.46 105.976 107.756 105.184C109.076 104.368 110.084 103.204 110.78 101.692H114.704C113.768 104.092 112.28 105.952 110.24 107.272C108.2 108.568 105.812 109.216 103.076 109.216C100.748 109.216 98.624 108.676 96.704 107.596C94.808 106.492 93.308 104.968 92.204 103.024C91.1 101.08 90.548 98.884 90.548 96.436ZM126.457 92.476C127.033 91.348 127.849 90.472 128.905 89.848C129.985 89.224 131.293 88.912 132.829 88.912V92.296H131.965C128.293 92.296 126.457 94.288 126.457 98.272V109H123.181V89.272H126.457V92.476ZM158.21 98.38C158.21 99.004 158.174 99.664 158.102 100.36H142.334C142.454 102.304 143.114 103.828 144.314 104.932C145.538 106.012 147.014 106.552 148.742 106.552C150.158 106.552 151.334 106.228 152.27 105.58C153.23 104.908 153.902 104.02 154.286 102.916H157.814C157.286 104.812 156.23 106.36 154.646 107.56C153.062 108.736 151.094 109.324 148.742 109.324C146.87 109.324 145.19 108.904 143.702 108.064C142.238 107.224 141.086 106.036 140.246 104.5C139.406 102.94 138.986 101.14 138.986 99.1C138.986 97.06 139.394 95.272 140.21 93.736C141.026 92.2 142.166 91.024 143.63 90.208C145.118 89.368 146.822 88.948 148.742 88.948C150.614 88.948 152.27 89.356 153.71 90.172C155.15 90.988 156.254 92.116 157.022 93.556C157.814 94.972 158.21 96.58 158.21 98.38ZM154.826 97.696C154.826 96.448 154.55 95.38 153.998 94.492C153.446 93.58 152.69 92.896 151.73 92.44C150.794 91.96 149.75 91.72 148.598 91.72C146.942 91.72 145.526 92.248 144.35 93.304C143.198 94.36 142.538 95.824 142.37 97.696H154.826ZM164.911 99.064C164.911 97.048 165.319 95.284 166.135 93.772C166.951 92.236 168.067 91.048 169.483 90.208C170.923 89.368 172.519 88.948 174.271 88.948C175.999 88.948 177.499 89.32 178.771 90.064C180.043 90.808 180.991 91.744 181.615 92.872V89.272H184.927V109H181.615V105.328C180.967 106.48 179.995 107.44 178.699 108.208C177.427 108.952 175.939 109.324 174.235 109.324C172.483 109.324 170.899 108.892 169.483 108.028C168.067 107.164 166.951 105.952 166.135 104.392C165.319 102.832 164.911 101.056 164.911 99.064ZM181.615 99.1C181.615 97.612 181.315 96.316 180.715 95.212C180.115 94.108 179.299 93.268 178.267 92.692C177.259 92.092 176.143 91.792 174.919 91.792C173.695 91.792 172.579 92.08 171.571 92.656C170.563 93.232 169.759 94.072 169.159 95.176C168.559 96.28 168.259 97.576 168.259 99.064C168.259 100.576 168.559 101.896 169.159 103.024C169.759 104.128 170.563 104.98 171.571 105.58C172.579 106.156 173.695 106.444 174.919 106.444C176.143 106.444 177.259 106.156 178.267 105.58C179.299 104.98 180.115 104.128 180.715 103.024C181.315 101.896 181.615 100.588 181.615 99.1ZM198.059 91.972V103.6C198.059 104.56 198.263 105.244 198.671 105.652C199.079 106.036 199.787 106.228 200.795 106.228H203.207V109H200.255C198.431 109 197.063 108.58 196.151 107.74C195.239 106.9 194.783 105.52 194.783 103.6V91.972H192.227V89.272H194.783V84.304H198.059V89.272H203.207V91.972H198.059ZM228.776 98.38C228.776 99.004 228.74 99.664 228.668 100.36H212.9C213.02 102.304 213.68 103.828 214.88 104.932C216.104 106.012 217.58 106.552 219.308 106.552C220.724 106.552 221.9 106.228 222.836 105.58C223.796 104.908 224.468 104.02 224.852 102.916H228.38C227.852 104.812 226.796 106.36 225.212 107.56C223.628 108.736 221.66 109.324 219.308 109.324C217.436 109.324 215.756 108.904 214.268 108.064C212.804 107.224 211.652 106.036 210.812 104.5C209.972 102.94 209.552 101.14 209.552 99.1C209.552 97.06 209.96 95.272 210.776 93.736C211.592 92.2 212.732 91.024 214.196 90.208C215.684 89.368 217.388 88.948 219.308 88.948C221.18 88.948 222.836 89.356 224.276 90.172C225.716 90.988 226.82 92.116 227.588 93.556C228.38 94.972 228.776 96.58 228.776 98.38ZM225.392 97.696C225.392 96.448 225.116 95.38 224.564 94.492C224.012 93.58 223.256 92.896 222.296 92.44C221.36 91.96 220.316 91.72 219.164 91.72C217.508 91.72 216.092 92.248 214.916 93.304C213.764 94.36 213.104 95.824 212.936 97.696H225.392Z" fill="#1F2D33"/>
<path d="M95.048 43.908V69H91.772V43.908H95.048ZM113.843 48.912C116.243 48.912 118.187 49.644 119.675 51.108C121.163 52.548 121.907 54.636 121.907 57.372V69H118.667V57.84C118.667 55.872 118.175 54.372 117.191 53.34C116.207 52.284 114.863 51.756 113.159 51.756C111.431 51.756 110.051 52.296 109.019 53.376C108.011 54.456 107.507 56.028 107.507 58.092V69H104.231V49.272H107.507V52.08C108.155 51.072 109.031 50.292 110.135 49.74C111.263 49.188 112.499 48.912 113.843 48.912ZM137.843 69.324C136.331 69.324 134.975 69.072 133.775 68.568C132.575 68.04 131.627 67.32 130.931 66.408C130.235 65.472 129.851 64.404 129.779 63.204H133.163C133.259 64.188 133.715 64.992 134.531 65.616C135.371 66.24 136.463 66.552 137.807 66.552C139.055 66.552 140.039 66.276 140.759 65.724C141.479 65.172 141.839 64.476 141.839 63.636C141.839 62.772 141.455 62.136 140.687 61.728C139.919 61.296 138.731 60.876 137.123 60.468C135.659 60.084 134.459 59.7 133.523 59.316C132.611 58.908 131.819 58.32 131.147 57.552C130.499 56.76 130.175 55.728 130.175 54.456C130.175 53.448 130.475 52.524 131.075 51.684C131.675 50.844 132.527 50.184 133.631 49.704C134.735 49.2 135.995 48.948 137.411 48.948C139.595 48.948 141.359 49.5 142.703 50.604C144.047 51.708 144.767 53.22 144.863 55.14H141.587C141.515 54.108 141.095 53.28 140.327 52.656C139.583 52.032 138.575 51.72 137.303 51.72C136.127 51.72 135.191 51.972 134.495 52.476C133.799 52.98 133.451 53.64 133.451 54.456C133.451 55.104 133.655 55.644 134.063 56.076C134.495 56.484 135.023 56.82 135.647 57.084C136.295 57.324 137.183 57.6 138.311 57.912C139.727 58.296 140.879 58.68 141.767 59.064C142.655 59.424 143.411 59.976 144.035 60.72C144.683 61.464 145.019 62.436 145.043 63.636C145.043 64.716 144.743 65.688 144.143 66.552C143.543 67.416 142.691 68.1 141.587 68.604C140.507 69.084 139.259 69.324 137.843 69.324ZM154.959 46.068C154.335 46.068 153.807 45.852 153.375 45.42C152.943 44.988 152.727 44.46 152.727 43.836C152.727 43.212 152.943 42.684 153.375 42.252C153.807 41.82 154.335 41.604 154.959 41.604C155.559 41.604 156.063 41.82 156.471 42.252C156.903 42.684 157.119 43.212 157.119 43.836C157.119 44.46 156.903 44.988 156.471 45.42C156.063 45.852 155.559 46.068 154.959 46.068ZM156.543 49.272V69H153.267V49.272H156.543ZM173.863 48.948C175.567 48.948 177.055 49.32 178.327 50.064C179.623 50.808 180.583 51.744 181.207 52.872V49.272H184.519V69.432C184.519 71.232 184.135 72.828 183.367 74.22C182.599 75.636 181.495 76.74 180.055 77.532C178.639 78.324 176.983 78.72 175.087 78.72C172.495 78.72 170.335 78.108 168.607 76.884C166.879 75.66 165.859 73.992 165.547 71.88H168.787C169.147 73.08 169.891 74.04 171.019 74.76C172.147 75.504 173.503 75.876 175.087 75.876C176.887 75.876 178.351 75.312 179.479 74.184C180.631 73.056 181.207 71.472 181.207 69.432V65.292C180.559 66.444 179.599 67.404 178.327 68.172C177.055 68.94 175.567 69.324 173.863 69.324C172.111 69.324 170.515 68.892 169.075 68.028C167.659 67.164 166.543 65.952 165.727 64.392C164.911 62.832 164.503 61.056 164.503 59.064C164.503 57.048 164.911 55.284 165.727 53.772C166.543 52.236 167.659 51.048 169.075 50.208C170.515 49.368 172.111 48.948 173.863 48.948ZM181.207 59.1C181.207 57.612 180.907 56.316 180.307 55.212C179.707 54.108 178.891 53.268 177.859 52.692C176.851 52.092 175.735 51.792 174.511 51.792C173.287 51.792 172.171 52.08 171.163 52.656C170.155 53.232 169.351 54.072 168.751 55.176C168.151 56.28 167.851 57.576 167.851 59.064C167.851 60.576 168.151 61.896 168.751 63.024C169.351 64.128 170.155 64.98 171.163 65.58C172.171 66.156 173.287 66.444 174.511 66.444C175.735 66.444 176.851 66.156 177.859 65.58C178.891 64.98 179.707 64.128 180.307 63.024C180.907 61.896 181.207 60.588 181.207 59.1ZM203.447 48.912C204.935 48.912 206.279 49.236 207.479 49.884C208.679 50.508 209.615 51.456 210.287 52.728C210.983 54 211.331 55.548 211.331 57.372V69H208.091V57.84C208.091 55.872 207.599 54.372 206.615 53.34C205.631 52.284 204.287 51.756 202.583 51.756C200.855 51.756 199.475 52.296 198.443 53.376C197.435 54.456 196.931 56.028 196.931 58.092V69H193.655V42.36H196.931V52.08C197.579 51.072 198.467 50.292 199.595 49.74C200.747 49.188 202.031 48.912 203.447 48.912ZM224.278 51.972V63.6C224.278 64.56 224.482 65.244 224.89 65.652C225.298 66.036 226.006 66.228 227.014 66.228H229.426V69H226.474C224.65 69 223.282 68.58 222.37 67.74C221.458 66.9 221.002 65.52 221.002 63.6V51.972H218.446V49.272H221.002V44.304H224.278V49.272H229.426V51.972H224.278Z" fill="#1F2D33"/>
<path d="M35.9 132V24H48.2V132H35.9ZM84.4801 132C81.1801 132 78.1301 131.2 75.3301 129.6C72.6301 128 70.4801 125.85 68.8801 123.15C67.2801 120.35 66.4801 117.3 66.4801 114V42C66.4801 38.7 67.2801 35.7 68.8801 33C70.4801 30.2 72.6301 28 75.3301 26.4C78.1301 24.8 81.1801 24 84.4801 24H174.18V36.15H84.4801C82.8801 36.15 81.4801 36.75 80.2801 37.95C79.1801 39.05 78.6301 40.4 78.6301 42V114C78.6301 115.6 79.1801 117 80.2801 118.2C81.4801 119.3 82.8801 119.85 84.4801 119.85H174.18V132H84.4801Z" fill="url(#paint0_linear_78_4769)"/>
<defs>
<linearGradient id="paint0_linear_78_4769" x1="110" y1="25" x2="110" y2="124" gradientUnits="userSpaceOnUse">
<stop stop-color="#4776E6"/>
<stop offset="1" stop-color="#8E54E9"/>
</linearGradient>
</defs>
</svg>
