<svg width="676" height="202" viewBox="0 0 676 202" fill="none" xmlns="http://www.w3.org/2000/svg">
<path d="M344.896 150C342.784 150 340.832 149.488 339.04 148.464C337.312 147.44 335.936 146.064 334.912 144.336C333.888 142.544 333.376 140.592 333.376 138.48V92.4C333.376 90.288 333.888 88.368 334.912 86.64C335.936 84.848 337.312 83.44 339.04 82.416C340.832 81.392 342.784 80.88 344.896 80.88H402.304V88.656H344.896C343.872 88.656 342.976 89.04 342.208 89.808C341.504 90.512 341.152 91.376 341.152 92.4V138.48C341.152 139.504 341.504 140.4 342.208 141.168C342.976 141.872 343.872 142.224 344.896 142.224H402.304V150H344.896Z" fill="url(#paint0_linear_149_2)"/>
<path d="M62.024 96.432C68.424 96.432 73.608 98.384 77.576 102.288C81.544 106.128 83.528 111.696 83.528 118.992V150H74.888V120.24C74.888 114.992 73.576 110.992 70.952 108.24C68.328 105.424 64.744 104.016 60.2 104.016C55.592 104.016 51.912 105.456 49.16 108.336C46.472 111.216 45.128 115.408 45.128 120.912V150H36.392V97.392H45.128V104.88C46.856 102.192 49.192 100.112 52.136 98.64C55.144 97.168 58.44 96.432 62.024 96.432ZM116.422 150.864C112.39 150.864 108.774 150.192 105.574 148.848C102.374 147.44 99.8463 145.52 97.9903 143.088C96.1343 140.592 95.1103 137.744 94.9183 134.544H103.942C104.198 137.168 105.414 139.312 107.59 140.976C109.83 142.64 112.742 143.472 116.326 143.472C119.654 143.472 122.278 142.736 124.198 141.264C126.118 139.792 127.078 137.936 127.078 135.696C127.078 133.392 126.054 131.696 124.006 130.608C121.958 129.456 118.79 128.336 114.502 127.248C110.598 126.224 107.398 125.2 104.902 124.176C102.47 123.088 100.358 121.52 98.5663 119.472C96.8383 117.36 95.9743 114.608 95.9743 111.216C95.9743 108.528 96.7743 106.064 98.3743 103.824C99.9743 101.584 102.246 99.824 105.19 98.544C108.134 97.2 111.494 96.528 115.27 96.528C121.094 96.528 125.798 98 129.382 100.944C132.966 103.888 134.886 107.92 135.142 113.04H126.406C126.214 110.288 125.094 108.08 123.046 106.416C121.062 104.752 118.374 103.92 114.982 103.92C111.846 103.92 109.35 104.592 107.494 105.936C105.638 107.28 104.71 109.04 104.71 111.216C104.71 112.944 105.254 114.384 106.342 115.536C107.494 116.624 108.902 117.52 110.566 118.224C112.294 118.864 114.662 119.6 117.67 120.432C121.446 121.456 124.518 122.48 126.886 123.504C129.254 124.464 131.27 125.936 132.934 127.92C134.662 129.904 135.558 132.496 135.622 135.696C135.622 138.576 134.822 141.168 133.222 143.472C131.622 145.776 129.35 147.6 126.406 148.944C123.526 150.224 120.198 150.864 116.422 150.864ZM152.467 88.848C150.803 88.848 149.395 88.272 148.243 87.12C147.091 85.968 146.515 84.56 146.515 82.896C146.515 81.232 147.091 79.824 148.243 78.672C149.395 77.52 150.803 76.944 152.467 76.944C154.067 76.944 155.411 77.52 156.499 78.672C157.651 79.824 158.227 81.232 158.227 82.896C158.227 84.56 157.651 85.968 156.499 87.12C155.411 88.272 154.067 88.848 152.467 88.848ZM156.691 97.392V150H147.955V97.392H156.691ZM193.276 96.528C197.82 96.528 201.788 97.52 205.18 99.504C208.636 101.488 211.196 103.984 212.86 106.992V97.392H221.692V151.152C221.692 155.952 220.668 160.208 218.62 163.92C216.572 167.696 213.628 170.64 209.788 172.752C206.012 174.864 201.596 175.92 196.54 175.92C189.628 175.92 183.868 174.288 179.26 171.024C174.652 167.76 171.932 163.312 171.1 157.68H179.74C180.7 160.88 182.684 163.44 185.692 165.36C188.7 167.344 192.316 168.336 196.54 168.336C201.34 168.336 205.244 166.832 208.252 163.824C211.324 160.816 212.86 156.592 212.86 151.152V140.112C211.132 143.184 208.572 145.744 205.18 147.792C201.788 149.84 197.82 150.864 193.276 150.864C188.604 150.864 184.348 149.712 180.508 147.408C176.732 145.104 173.756 141.872 171.58 137.712C169.404 133.552 168.316 128.816 168.316 123.504C168.316 118.128 169.404 113.424 171.58 109.392C173.756 105.296 176.732 102.128 180.508 99.888C184.348 97.648 188.604 96.528 193.276 96.528ZM212.86 123.6C212.86 119.632 212.06 116.176 210.46 113.232C208.86 110.288 206.684 108.048 203.932 106.512C201.244 104.912 198.268 104.112 195.004 104.112C191.74 104.112 188.764 104.88 186.076 106.416C183.388 107.952 181.244 110.192 179.644 113.136C178.044 116.08 177.244 119.536 177.244 123.504C177.244 127.536 178.044 131.056 179.644 134.064C181.244 137.008 183.388 139.28 186.076 140.88C188.764 142.416 191.74 143.184 195.004 143.184C198.268 143.184 201.244 142.416 203.932 140.88C206.684 139.28 208.86 137.008 210.46 134.064C212.06 131.056 212.86 127.568 212.86 123.6ZM262.567 96.432C266.535 96.432 270.119 97.296 273.319 99.024C276.519 100.688 279.015 103.216 280.807 106.608C282.663 110 283.591 114.128 283.591 118.992V150H274.951V120.24C274.951 114.992 273.639 110.992 271.015 108.24C268.391 105.424 264.807 104.016 260.263 104.016C255.655 104.016 251.975 105.456 249.223 108.336C246.535 111.216 245.191 115.408 245.191 120.912V150H236.455V78.96H245.191V104.88C246.919 102.192 249.287 100.112 252.295 98.64C255.367 97.168 258.791 96.432 262.567 96.432ZM308.517 104.592V135.6C308.517 138.16 309.061 139.984 310.149 141.072C311.237 142.096 313.125 142.608 315.813 142.608H322.245V150H314.373C309.509 150 305.861 148.88 303.429 146.64C300.997 144.4 299.781 140.72 299.781 135.6V104.592H292.965V97.392H299.781V84.144H308.517V97.392H322.245V104.592H308.517Z" fill="white"/>
<path d="M36.392 19.392V52.352C36.392 56.0213 35.2613 58.9653 33 61.184C30.7387 63.36 27.752 64.448 24.04 64.448C20.2853 64.448 17.2773 63.3387 15.016 61.12C12.7547 58.8587 11.624 55.7867 11.624 51.904H17.448C17.4907 54.08 18.0453 55.8507 19.112 57.216C20.2213 58.5813 21.864 59.264 24.04 59.264C26.216 59.264 27.8373 58.624 28.904 57.344C29.9707 56.0213 30.504 54.3573 30.504 52.352V19.392H36.392ZM63.1615 64.576C59.8762 64.576 56.8895 63.8293 54.2015 62.336C51.5562 60.8427 49.4655 58.7307 47.9295 56C46.4362 53.2267 45.6895 50.0267 45.6895 46.4C45.6895 42.816 46.4575 39.6587 47.9935 36.928C49.5722 34.1547 51.7055 32.0427 54.3935 30.592C57.0815 29.0987 60.0895 28.352 63.4175 28.352C66.7455 28.352 69.7535 29.0987 72.4415 30.592C75.1295 32.0427 77.2415 34.1333 78.7775 36.864C80.3562 39.5947 81.1455 42.7733 81.1455 46.4C81.1455 50.0267 80.3348 53.2267 78.7135 56C77.1348 58.7307 74.9802 60.8427 72.2495 62.336C69.5188 63.8293 66.4895 64.576 63.1615 64.576ZM63.1615 59.456C65.2522 59.456 67.2148 58.9653 69.0495 57.984C70.8842 57.0027 72.3562 55.5307 73.4655 53.568C74.6175 51.6053 75.1935 49.216 75.1935 46.4C75.1935 43.584 74.6388 41.1947 73.5295 39.232C72.4202 37.2693 70.9695 35.8187 69.1775 34.88C67.3855 33.8987 65.4442 33.408 63.3535 33.408C61.2202 33.408 59.2575 33.8987 57.4655 34.88C55.7162 35.8187 54.3082 37.2693 53.2415 39.232C52.1748 41.1947 51.6415 43.584 51.6415 46.4C51.6415 49.2587 52.1535 51.6693 53.1775 53.632C54.2442 55.5947 55.6522 57.0667 57.4015 58.048C59.1508 58.9867 61.0708 59.456 63.1615 59.456ZM91.811 23.232C90.7017 23.232 89.763 22.848 88.995 22.08C88.227 21.312 87.843 20.3733 87.843 19.264C87.843 18.1547 88.227 17.216 88.995 16.448C89.763 15.68 90.7017 15.296 91.811 15.296C92.8777 15.296 93.7737 15.68 94.499 16.448C95.267 17.216 95.651 18.1547 95.651 19.264C95.651 20.3733 95.267 21.312 94.499 22.08C93.7737 22.848 92.8777 23.232 91.811 23.232ZM94.627 28.928V64H88.803V28.928H94.627ZM121.641 28.288C125.908 28.288 129.364 29.5893 132.009 32.192C134.654 34.752 135.977 38.464 135.977 43.328V64H130.217V44.16C130.217 40.6613 129.342 37.9947 127.593 36.16C125.844 34.2827 123.454 33.344 120.425 33.344C117.353 33.344 114.9 34.304 113.065 36.224C111.273 38.144 110.377 40.9387 110.377 44.608V64H104.553V28.928H110.377V33.92C111.529 32.128 113.086 30.7413 115.049 29.76C117.054 28.7787 119.252 28.288 121.641 28.288Z" fill="white"/>
<path d="M427.128 102.936C428.664 99.928 430.84 97.592 433.656 95.928C436.536 94.264 440.024 93.432 444.12 93.432V102.456H441.816C432.024 102.456 427.128 107.768 427.128 118.392V147H418.392V94.392H427.128V102.936ZM502.205 118.68C502.205 120.344 502.109 122.104 501.917 123.96H459.869C460.189 129.144 461.949 133.208 465.149 136.152C468.413 139.032 472.349 140.472 476.957 140.472C480.733 140.472 483.869 139.608 486.365 137.88C488.925 136.088 490.717 133.72 491.741 130.776H501.149C499.741 135.832 496.925 139.96 492.701 143.16C488.477 146.296 483.229 147.864 476.957 147.864C471.965 147.864 467.485 146.744 463.517 144.504C459.613 142.264 456.541 139.096 454.301 135C452.061 130.84 450.941 126.04 450.941 120.6C450.941 115.16 452.029 110.392 454.205 106.296C456.381 102.2 459.421 99.064 463.325 96.888C467.293 94.648 471.837 93.528 476.957 93.528C481.949 93.528 486.365 94.616 490.205 96.792C494.045 98.968 496.989 101.976 499.037 105.816C501.149 109.592 502.205 113.88 502.205 118.68ZM493.181 116.856C493.181 113.528 492.445 110.68 490.973 108.312C489.501 105.88 487.485 104.056 484.925 102.84C482.429 101.56 479.645 100.92 476.573 100.92C472.157 100.92 468.381 102.328 465.245 105.144C462.173 107.96 460.413 111.864 459.965 116.856H493.181ZM510.472 120.504C510.472 115.128 511.56 110.424 513.736 106.392C515.912 102.296 518.888 99.128 522.664 96.888C526.504 94.648 530.76 93.528 535.432 93.528C540.04 93.528 544.04 94.52 547.432 96.504C550.824 98.488 553.352 100.984 555.016 103.992V94.392H563.848V147H555.016V137.208C553.288 140.28 550.696 142.84 547.24 144.888C543.848 146.872 539.88 147.864 535.336 147.864C530.664 147.864 526.44 146.712 522.664 144.408C518.888 142.104 515.912 138.872 513.736 134.712C511.56 130.552 510.472 125.816 510.472 120.504ZM555.016 120.6C555.016 116.632 554.216 113.176 552.616 110.232C551.016 107.288 548.84 105.048 546.088 103.512C543.4 101.912 540.424 101.112 537.16 101.112C533.896 101.112 530.92 101.88 528.232 103.416C525.544 104.952 523.4 107.192 521.8 110.136C520.2 113.08 519.4 116.536 519.4 120.504C519.4 124.536 520.2 128.056 521.8 131.064C523.4 134.008 525.544 136.28 528.232 137.88C530.92 139.416 533.896 140.184 537.16 140.184C540.424 140.184 543.4 139.416 546.088 137.88C548.84 136.28 551.016 134.008 552.616 131.064C554.216 128.056 555.016 124.568 555.016 120.6ZM589.267 101.592V132.6C589.267 135.16 589.811 136.984 590.899 138.072C591.987 139.096 593.875 139.608 596.563 139.608H602.995V147H595.123C590.259 147 586.611 145.88 584.179 143.64C581.747 141.4 580.531 137.72 580.531 132.6V101.592H573.715V94.392H580.531V81.144H589.267V94.392H602.995V101.592H589.267ZM661.58 118.68C661.58 120.344 661.484 122.104 661.292 123.96H619.244C619.564 129.144 621.324 133.208 624.524 136.152C627.788 139.032 631.724 140.472 636.332 140.472C640.108 140.472 643.244 139.608 645.74 137.88C648.3 136.088 650.092 133.72 651.116 130.776H660.524C659.116 135.832 656.3 139.96 652.076 143.16C647.852 146.296 642.604 147.864 636.332 147.864C631.34 147.864 626.86 146.744 622.892 144.504C618.988 142.264 615.916 139.096 613.676 135C611.436 130.84 610.316 126.04 610.316 120.6C610.316 115.16 611.404 110.392 613.58 106.296C615.756 102.2 618.796 99.064 622.7 96.888C626.668 94.648 631.212 93.528 636.332 93.528C641.324 93.528 645.74 94.616 649.58 96.792C653.42 98.968 656.364 101.976 658.412 105.816C660.524 109.592 661.58 113.88 661.58 118.68ZM652.556 116.856C652.556 113.528 651.82 110.68 650.348 108.312C648.876 105.88 646.86 104.056 644.3 102.84C641.804 101.56 639.02 100.92 635.948 100.92C631.532 100.92 627.756 102.328 624.62 105.144C621.548 107.96 619.788 111.864 619.34 116.856H652.556Z" fill="white"/>
<path d="M14.8047 150V80.88H22.6768V150H14.8047Z" fill="url(#paint1_linear_149_2)"/>
<defs>
<linearGradient id="paint0_linear_149_2" x1="369.5" y1="71" x2="369.5" y2="155" gradientUnits="userSpaceOnUse">
<stop stop-color="#4776E6"/>
<stop offset="1" stop-color="#8E54E9"/>
</linearGradient>
<linearGradient id="paint1_linear_149_2" x1="19" y1="76" x2="19" y2="150" gradientUnits="userSpaceOnUse">
<stop stop-color="#4776E6"/>
<stop offset="1" stop-color="#8E54E9"/>
</linearGradient>
</defs>
</svg>
