<svg width="676" height="105" viewBox="0 0 676 105" fill="none" xmlns="http://www.w3.org/2000/svg">
<path d="M344.896 79C342.784 79 340.832 78.488 339.04 77.464C337.312 76.44 335.936 75.064 334.912 73.336C333.888 71.544 333.376 69.592 333.376 67.48V21.4C333.376 19.288 333.888 17.368 334.912 15.64C335.936 13.848 337.312 12.44 339.04 11.416C340.832 10.392 342.784 9.88 344.896 9.88H402.304V17.656H344.896C343.872 17.656 342.976 18.04 342.208 18.808C341.504 19.512 341.152 20.376 341.152 21.4V67.48C341.152 68.504 341.504 69.4 342.208 70.168C342.976 70.872 343.872 71.224 344.896 71.224H402.304V79H344.896Z" fill="#BDB0ED"/>
<path d="M62.024 22.432C68.424 22.432 73.608 24.384 77.576 28.288C81.544 32.128 83.528 37.696 83.528 44.992V76H74.888V46.24C74.888 40.992 73.576 36.992 70.952 34.24C68.328 31.424 64.744 30.016 60.2 30.016C55.592 30.016 51.912 31.456 49.16 34.336C46.472 37.216 45.128 41.408 45.128 46.912V76H36.392V23.392H45.128V30.88C46.856 28.192 49.192 26.112 52.136 24.64C55.144 23.168 58.44 22.432 62.024 22.432ZM116.422 76.864C112.39 76.864 108.774 76.192 105.574 74.848C102.374 73.44 99.8463 71.52 97.9903 69.088C96.1343 66.592 95.1103 63.744 94.9183 60.544H103.942C104.198 63.168 105.414 65.312 107.59 66.976C109.83 68.64 112.742 69.472 116.326 69.472C119.654 69.472 122.278 68.736 124.198 67.264C126.118 65.792 127.078 63.936 127.078 61.696C127.078 59.392 126.054 57.696 124.006 56.608C121.958 55.456 118.79 54.336 114.502 53.248C110.598 52.224 107.398 51.2 104.902 50.176C102.47 49.088 100.358 47.52 98.5663 45.472C96.8383 43.36 95.9743 40.608 95.9743 37.216C95.9743 34.528 96.7743 32.064 98.3743 29.824C99.9743 27.584 102.246 25.824 105.19 24.544C108.134 23.2 111.494 22.528 115.27 22.528C121.094 22.528 125.798 24 129.382 26.944C132.966 29.888 134.886 33.92 135.142 39.04H126.406C126.214 36.288 125.094 34.08 123.046 32.416C121.062 30.752 118.374 29.92 114.982 29.92C111.846 29.92 109.35 30.592 107.494 31.936C105.638 33.28 104.71 35.04 104.71 37.216C104.71 38.944 105.254 40.384 106.342 41.536C107.494 42.624 108.902 43.52 110.566 44.224C112.294 44.864 114.662 45.6 117.67 46.432C121.446 47.456 124.518 48.48 126.886 49.504C129.254 50.464 131.27 51.936 132.934 53.92C134.662 55.904 135.558 58.496 135.622 61.696C135.622 64.576 134.822 67.168 133.222 69.472C131.622 71.776 129.35 73.6 126.406 74.944C123.526 76.224 120.198 76.864 116.422 76.864ZM152.467 14.848C150.803 14.848 149.395 14.272 148.243 13.12C147.091 11.968 146.515 10.56 146.515 8.89599C146.515 7.232 147.091 5.824 148.243 4.672C149.395 3.52 150.803 2.944 152.467 2.944C154.067 2.944 155.411 3.52 156.499 4.672C157.651 5.824 158.227 7.232 158.227 8.89599C158.227 10.56 157.651 11.968 156.499 13.12C155.411 14.272 154.067 14.848 152.467 14.848ZM156.691 23.392V76H147.955V23.392H156.691ZM193.276 22.528C197.82 22.528 201.788 23.52 205.18 25.504C208.636 27.488 211.196 29.984 212.86 32.992V23.392H221.692V77.152C221.692 81.952 220.668 86.208 218.62 89.92C216.572 93.696 213.628 96.64 209.788 98.752C206.012 100.864 201.596 101.92 196.54 101.92C189.628 101.92 183.868 100.288 179.26 97.024C174.652 93.76 171.932 89.312 171.1 83.68H179.74C180.7 86.88 182.684 89.44 185.692 91.36C188.7 93.344 192.316 94.336 196.54 94.336C201.34 94.336 205.244 92.832 208.252 89.824C211.324 86.816 212.86 82.592 212.86 77.152V66.112C211.132 69.184 208.572 71.744 205.18 73.792C201.788 75.84 197.82 76.864 193.276 76.864C188.604 76.864 184.348 75.712 180.508 73.408C176.732 71.104 173.756 67.872 171.58 63.712C169.404 59.552 168.316 54.816 168.316 49.504C168.316 44.128 169.404 39.424 171.58 35.392C173.756 31.296 176.732 28.128 180.508 25.888C184.348 23.648 188.604 22.528 193.276 22.528ZM212.86 49.6C212.86 45.632 212.06 42.176 210.46 39.232C208.86 36.288 206.684 34.048 203.932 32.512C201.244 30.912 198.268 30.112 195.004 30.112C191.74 30.112 188.764 30.88 186.076 32.416C183.388 33.952 181.244 36.192 179.644 39.136C178.044 42.08 177.244 45.536 177.244 49.504C177.244 53.536 178.044 57.056 179.644 60.064C181.244 63.008 183.388 65.28 186.076 66.88C188.764 68.416 191.74 69.184 195.004 69.184C198.268 69.184 201.244 68.416 203.932 66.88C206.684 65.28 208.86 63.008 210.46 60.064C212.06 57.056 212.86 53.568 212.86 49.6ZM262.567 22.432C266.535 22.432 270.119 23.296 273.319 25.024C276.519 26.688 279.015 29.216 280.807 32.608C282.663 36 283.591 40.128 283.591 44.992V76H274.951V46.24C274.951 40.992 273.639 36.992 271.015 34.24C268.391 31.424 264.807 30.016 260.263 30.016C255.655 30.016 251.975 31.456 249.223 34.336C246.535 37.216 245.191 41.408 245.191 46.912V76H236.455V4.96H245.191V30.88C246.919 28.192 249.287 26.112 252.295 24.64C255.367 23.168 258.791 22.432 262.567 22.432ZM308.517 30.592V61.6C308.517 64.16 309.061 65.984 310.149 67.072C311.237 68.096 313.125 68.608 315.813 68.608H322.245V76H314.373C309.509 76 305.861 74.88 303.429 72.64C300.997 70.4 299.781 66.72 299.781 61.6V30.592H292.965V23.392H299.781V10.144H308.517V23.392H322.245V30.592H308.517Z" fill="#151514"/>
<path d="M427.128 28.936C428.664 25.928 430.84 23.592 433.656 21.928C436.536 20.264 440.024 19.432 444.12 19.432V28.456H441.816C432.024 28.456 427.128 33.768 427.128 44.392V73H418.392V20.392H427.128V28.936ZM502.205 44.68C502.205 46.344 502.109 48.104 501.917 49.96H459.869C460.189 55.144 461.949 59.208 465.149 62.152C468.413 65.032 472.349 66.472 476.957 66.472C480.733 66.472 483.869 65.608 486.365 63.88C488.925 62.088 490.717 59.72 491.741 56.776H501.149C499.741 61.832 496.925 65.96 492.701 69.16C488.477 72.296 483.229 73.864 476.957 73.864C471.965 73.864 467.485 72.744 463.517 70.504C459.613 68.264 456.541 65.096 454.301 61C452.061 56.84 450.941 52.04 450.941 46.6C450.941 41.16 452.029 36.392 454.205 32.296C456.381 28.2 459.421 25.064 463.325 22.888C467.293 20.648 471.837 19.528 476.957 19.528C481.949 19.528 486.365 20.616 490.205 22.792C494.045 24.968 496.989 27.976 499.037 31.816C501.149 35.592 502.205 39.88 502.205 44.68ZM493.181 42.856C493.181 39.528 492.445 36.68 490.973 34.312C489.501 31.88 487.485 30.056 484.925 28.84C482.429 27.56 479.645 26.92 476.573 26.92C472.157 26.92 468.381 28.328 465.245 31.144C462.173 33.96 460.413 37.864 459.965 42.856H493.181ZM510.472 46.504C510.472 41.128 511.56 36.424 513.736 32.392C515.912 28.296 518.888 25.128 522.664 22.888C526.504 20.648 530.76 19.528 535.432 19.528C540.04 19.528 544.04 20.52 547.432 22.504C550.824 24.488 553.352 26.984 555.016 29.992V20.392H563.848V73H555.016V63.208C553.288 66.28 550.696 68.84 547.24 70.888C543.848 72.872 539.88 73.864 535.336 73.864C530.664 73.864 526.44 72.712 522.664 70.408C518.888 68.104 515.912 64.872 513.736 60.712C511.56 56.552 510.472 51.816 510.472 46.504ZM555.016 46.6C555.016 42.632 554.216 39.176 552.616 36.232C551.016 33.288 548.84 31.048 546.088 29.512C543.4 27.912 540.424 27.112 537.16 27.112C533.896 27.112 530.92 27.88 528.232 29.416C525.544 30.952 523.4 33.192 521.8 36.136C520.2 39.08 519.4 42.536 519.4 46.504C519.4 50.536 520.2 54.056 521.8 57.064C523.4 60.008 525.544 62.28 528.232 63.88C530.92 65.416 533.896 66.184 537.16 66.184C540.424 66.184 543.4 65.416 546.088 63.88C548.84 62.28 551.016 60.008 552.616 57.064C554.216 54.056 555.016 50.568 555.016 46.6ZM589.267 27.592V58.6C589.267 61.16 589.811 62.984 590.899 64.072C591.987 65.096 593.875 65.608 596.563 65.608H602.995V73H595.123C590.259 73 586.611 71.88 584.179 69.64C581.747 67.4 580.531 63.72 580.531 58.6V27.592H573.715V20.392H580.531V7.144H589.267V20.392H602.995V27.592H589.267ZM661.58 44.68C661.58 46.344 661.484 48.104 661.292 49.96H619.244C619.564 55.144 621.324 59.208 624.524 62.152C627.788 65.032 631.724 66.472 636.332 66.472C640.108 66.472 643.244 65.608 645.74 63.88C648.3 62.088 650.092 59.72 651.116 56.776H660.524C659.116 61.832 656.3 65.96 652.076 69.16C647.852 72.296 642.604 73.864 636.332 73.864C631.34 73.864 626.86 72.744 622.892 70.504C618.988 68.264 615.916 65.096 613.676 61C611.436 56.84 610.316 52.04 610.316 46.6C610.316 41.16 611.404 36.392 613.58 32.296C615.756 28.2 618.796 25.064 622.7 22.888C626.668 20.648 631.212 19.528 636.332 19.528C641.324 19.528 645.74 20.616 649.58 22.792C653.42 24.968 656.364 27.976 658.412 31.816C660.524 35.592 661.58 39.88 661.58 44.68ZM652.556 42.856C652.556 39.528 651.82 36.68 650.348 34.312C648.876 31.88 646.86 30.056 644.3 28.84C641.804 27.56 639.02 26.92 635.948 26.92C631.532 26.92 627.756 28.328 624.62 31.144C621.548 33.96 619.788 37.864 619.34 42.856H652.556Z" fill="#151514"/>
<path d="M14.8047 79V9.88H22.6768V79H14.8047Z" fill="#BDB0ED"/>
</svg>
